<?xml version="1.0" encoding="UTF-8"?>
<svg id="Layer_1" data-name="Layer 1" xmlns="http://www.w3.org/2000/svg" viewBox="0 0 297.65 199.43">
  <defs>
    <style>
      .cls-1 {
        fill: #0a192f;
      }

      .cls-2 {
        fill: #ecf3fb;
      }
    </style>
  </defs>
  <rect class="cls-2" width="297.65" height="199.43"/>
  <g>
    <path class="cls-1" d="M121.21,133.99c1.65.91,3.46,1.61,5.39,2.06,11.19,2.58,22.34-4.41,24.92-15.59,1.11-4.83.44-9.65-1.58-13.78,7.92,4.37,12.33,13.61,10.2,22.86-2.58,11.19-13.73,18.17-24.92,15.59-6.35-1.46-11.35-5.7-14.01-11.14Z"/>
    <path class="cls-1" d="M105.47,105.42c.52,1.81,1.31,3.59,2.36,5.27,6.09,9.73,18.92,12.68,28.65,6.59,4.2-2.63,7.14-6.51,8.63-10.86,2.51,8.7-.9,18.34-8.95,23.38-9.73,6.09-22.56,3.14-28.65-6.59-3.46-5.53-4-12.06-2.03-17.78Z"/>
    <path class="cls-1" d="M114.55,74.1c-.91,1.65-1.61,3.46-2.06,5.39-2.58,11.19,4.41,22.34,15.59,24.92,4.83,1.11,9.65.44,13.78-1.58-4.37,7.92-13.61,12.33-22.86,10.2-11.19-2.58-18.17-13.73-15.59-24.92,1.46-6.35,5.7-11.35,11.14-14.01Z"/>
    <path class="cls-1" d="M143.11,58.36c-1.81.52-3.59,1.31-5.27,2.36-9.73,6.09-12.68,18.92-6.59,28.65,2.63,4.2,6.51,7.14,10.86,8.63-8.7,2.51-18.34-.9-23.38-8.95-6.09-9.73-3.14-22.56,6.59-28.65,5.53-3.46,12.06-4,17.78-2.03Z"/>
    <path class="cls-1" d="M174.44,67.44c-1.65-.91-3.46-1.61-5.39-2.06-11.19-2.58-22.34,4.41-24.92,15.59-1.11,4.83-.44,9.65,1.58,13.78-7.92-4.37-12.33-13.61-10.2-22.86,2.58-11.19,13.73-18.17,24.92-15.59,6.35,1.46,11.35,5.7,14.01,11.14Z"/>
    <path class="cls-1" d="M190.17,96c-.52-1.81-1.31-3.59-2.36-5.27-6.09-9.73-18.92-12.68-28.65-6.59-4.2,2.63-7.14,6.51-8.63,10.86-2.51-8.7.9-18.34,8.95-23.38,9.73-6.09,22.56-3.14,28.65,6.59,3.46,5.53,4,12.06,2.03,17.78Z"/>
    <path class="cls-1" d="M181.1,127.33c.91-1.65,1.61-3.46,2.06-5.39,2.58-11.19-4.41-22.34-15.59-24.92-4.83-1.11-9.65-.44-13.78,1.58,4.37-7.92,13.61-12.33,22.86-10.2,11.19,2.58,18.17,13.73,15.59,24.92-1.46,6.35-5.7,11.35-11.14,14.01Z"/>
    <path class="cls-1" d="M152.53,143.06c1.81-.52,3.59-1.31,5.27-2.36,9.73-6.09,12.68-18.92,6.59-28.65-2.63-4.2-6.51-7.14-10.86-8.63,8.7-2.51,18.34.9,23.38,8.95,6.09,9.73,3.14,22.56-6.59,28.65-5.53,3.46-12.06,4-17.78,2.03Z"/>
  </g>
</svg>